<svg width="32" height="32" viewBox="0 0 32 32" fill="none" xmlns="http://www.w3.org/2000/svg">
<path d="M28.4012 3.83196C28.0895 3.84564 27.7861 3.93239 27.5125 4.04196C27.2417 4.1508 25.6825 4.81629 23.38 5.80071C21.0775 6.78513 18.0844 8.06706 15.1175 9.33821C9.18358 11.8805 3.35249 14.382 3.35249 14.382L3.39499 14.3657C3.39499 14.3657 3.04305 14.4833 2.68624 14.732C2.50783 14.8563 2.31589 15.0167 2.15874 15.2507C2.00158 15.4847 1.88669 15.8163 1.92999 16.167C2.08207 17.3988 3.35874 17.7482 3.35874 17.7482L3.36374 17.7507L9.06124 19.7007C9.2065 20.1853 10.7893 25.4682 11.1375 26.587C11.3298 27.2055 11.5098 27.5623 11.6975 27.8057C11.7914 27.9275 11.8899 28.0218 11.9987 28.0907C12.042 28.1181 12.0875 28.1386 12.1325 28.157C12.1334 28.1574 12.134 28.1565 12.135 28.157C12.1405 28.1594 12.1457 28.1596 12.1512 28.162L12.1362 28.1582C12.1467 28.1624 12.157 28.1695 12.1675 28.1732C12.1878 28.1803 12.2002 28.1801 12.2262 28.1857C12.8787 28.4135 13.4187 27.9907 13.4187 27.9907L13.4412 27.9732L16.9412 24.727L22.6212 29.1557L22.6925 29.1882C23.6867 29.6296 24.5858 29.3834 25.0837 28.9782C25.5817 28.5731 25.7775 28.0507 25.7775 28.0507L25.7987 27.9957L29.9725 6.24196C30.0793 5.75528 30.0945 5.3346 29.9937 4.95446C29.893 4.57432 29.6483 4.24387 29.3412 4.06071C29.0342 3.87755 28.713 3.81829 28.4012 3.83196ZM28.435 5.13321C28.5616 5.12735 28.6554 5.14182 28.685 5.15946C28.7146 5.1771 28.7278 5.17478 28.7562 5.28196C28.7846 5.38914 28.8 5.61489 28.7225 5.96821L28.72 5.97571L24.57 27.6032C24.5602 27.625 24.4737 27.8251 24.2762 27.9857C24.0748 28.1496 23.8508 28.2775 23.2562 28.0282L17.045 23.1845L16.87 23.047L16.8662 23.0507L15.0087 21.657L25.4475 9.37571C25.5277 9.28159 25.5789 9.16624 25.595 9.04362C25.611 8.921 25.5912 8.79636 25.5379 8.68476C25.4846 8.57317 25.4002 8.4794 25.2947 8.41479C25.1893 8.35018 25.0674 8.31751 24.9437 8.32071C24.8229 8.32385 24.7055 8.36112 24.605 8.42821L9.49999 18.4982L3.79374 16.5445C3.79374 16.5445 3.22711 16.2291 3.19999 16.0095C3.19848 15.9973 3.19179 16.0083 3.22124 15.9645C3.25068 15.9206 3.32469 15.8466 3.41749 15.782C3.60307 15.6527 3.81499 15.5745 3.81499 15.5745L3.83624 15.567L3.85749 15.5582C3.85749 15.5582 9.68888 13.0566 15.6225 10.5145C18.5893 9.24337 21.5818 7.96239 23.8837 6.97821C26.1851 5.99429 27.8479 5.28607 27.9887 5.22946C28.149 5.16527 28.3084 5.13907 28.435 5.13321ZM21.5125 12.0282L13.5962 21.342L13.5925 21.3457C13.5801 21.3606 13.5685 21.376 13.5575 21.392C13.5449 21.4093 13.5332 21.4272 13.5225 21.4457C13.478 21.5212 13.4495 21.605 13.4387 21.692C13.4387 21.6936 13.4387 21.6953 13.4387 21.697L12.4075 26.3345C12.3903 26.2844 12.3783 26.266 12.36 26.207V26.2057C12.0324 25.1533 10.5391 20.171 10.3325 19.482L21.5125 12.0282ZM14.49 22.8682L15.9125 23.9357L13.8225 25.8732L14.49 22.8682Z" fill="#FFAA2C"/>
</svg>
