<svg width="32" height="32" viewBox="0 0 32 32" fill="none" xmlns="http://www.w3.org/2000/svg">
<path d="M15.1981 0.00465636C12.6301 0.0356564 7.10906 0.457656 4.02106 3.29066C1.72406 5.56666 0.922058 8.93166 0.828058 13.0927C0.750058 17.2387 0.656058 25.0247 8.16106 27.1447V30.3737C8.16106 30.3737 8.11406 31.6657 8.96806 31.9307C10.0201 32.2637 10.6191 31.2697 11.6191 30.2017L13.4841 28.0927C18.6191 28.5197 22.5521 27.5357 23.0051 27.3897C24.0471 27.0567 29.9161 26.3067 30.8751 18.5197C31.8591 10.4777 30.3961 5.41066 27.7551 3.11866H27.7391C26.9421 2.38466 23.7391 0.0506564 16.5831 0.0246564C16.5831 0.0246564 16.0521 -0.0113436 15.1981 0.00365636V0.00465636ZM15.2861 2.26566C16.0151 2.26066 16.4581 2.29166 16.4581 2.29166C22.5151 2.30766 25.4061 4.13066 26.0881 4.74466C28.3121 6.65066 29.4581 11.2187 28.6191 17.9327C27.8221 24.4427 23.0621 24.8547 22.1811 25.1357C21.8061 25.2557 18.3421 26.1097 13.9781 25.8287C13.9781 25.8287 10.7281 29.7507 9.71206 30.7607C9.55106 30.9377 9.36306 30.9897 9.24306 30.9637C9.07106 30.9217 9.01906 30.7087 9.02906 30.4167L9.06006 25.0577C2.69506 23.2977 3.07006 16.6567 3.13806 13.1877C3.21606 9.71866 3.86706 6.88066 5.80506 4.95866C8.41406 2.59966 13.1021 2.28166 15.2841 2.26566H15.2861ZM15.7661 5.73366C15.5471 5.72866 15.3651 5.91066 15.3651 6.12966C15.3651 6.35366 15.5471 6.53066 15.7661 6.53066C17.7711 6.49466 19.7041 7.25466 21.1411 8.65066C22.5941 10.0617 23.3021 11.9577 23.3291 14.4367C23.3291 14.6557 23.5061 14.8377 23.7301 14.8377V14.8217C23.9491 14.8217 24.1311 14.6447 24.1311 14.4257C24.2301 12.0667 23.3551 9.77466 21.7141 8.07666C20.1311 6.52966 18.1251 5.73266 15.7661 5.73266V5.73366ZM10.4951 6.65066C10.2141 6.60866 9.92206 6.66666 9.67706 6.81166H9.65606C9.11406 7.12966 8.60906 7.53066 8.13006 8.06666C7.76506 8.48866 7.56706 8.91566 7.51506 9.32666C7.48406 9.57166 7.50506 9.81666 7.57806 10.0507L7.60406 10.0667C8.01506 11.2747 8.55206 12.4367 9.20806 13.5307C10.0521 15.0667 11.0931 16.4887 12.3021 17.7597L12.3381 17.8117L12.3951 17.8537L12.4311 17.8957L12.4731 17.9317C13.7491 19.1457 15.1711 20.1867 16.7131 21.0407C18.4731 21.9987 19.5411 22.4517 20.1821 22.6397V22.6497C20.3701 22.7067 20.5411 22.7327 20.7131 22.7327C21.2601 22.6907 21.7761 22.4727 22.1821 22.1027C22.7031 21.6337 23.1141 21.1187 23.4221 20.5717V20.5617C23.7291 19.9837 23.6251 19.4367 23.1821 19.0667C22.2971 18.2907 21.3331 17.6027 20.3171 17.0097C19.6351 16.6397 18.9421 16.8637 18.6611 17.2387L18.0621 17.9937C17.7551 18.3687 17.1971 18.3167 17.1971 18.3167L17.1811 18.3267C13.0201 17.2637 11.9101 13.0507 11.9101 13.0507C11.9101 13.0507 11.8581 12.4777 12.2431 12.1857L12.9931 11.5817C13.3521 11.2897 13.6021 10.5977 13.2171 9.91466C12.6281 8.89366 11.9411 7.93566 11.1651 7.04966C10.9981 6.84166 10.7591 6.70066 10.4931 6.64866L10.4951 6.65066ZM16.4581 7.83866C15.9271 7.83866 15.9271 8.64066 16.4631 8.64066C17.7961 8.66166 19.0671 9.21366 19.9941 10.1717C20.8381 11.1037 21.2751 12.3437 21.1921 13.5987C21.1971 13.8177 21.3741 13.9947 21.5931 13.9947L21.6091 14.0157C21.8281 14.0157 22.0101 13.8337 22.0101 13.6147C22.0461 12.0257 21.5521 10.6927 20.5831 9.62466C19.6091 8.55666 18.2501 7.95766 16.5151 7.83866C16.4941 7.83866 16.4791 7.83866 16.4581 7.83866V7.83866ZM17.1151 9.99466C16.5681 9.97866 16.5471 10.7967 17.0891 10.8127C18.4071 10.8807 19.0471 11.5467 19.1311 12.9167C19.1361 13.1357 19.3131 13.3077 19.5271 13.3077H19.5431C19.7671 13.2977 19.9441 13.1047 19.9281 12.8807C19.8341 11.0947 18.8601 10.0887 17.1311 9.99566C17.1261 9.99566 17.1211 9.99566 17.1151 9.99566V9.99466Z" fill="#9788FF"/>
</svg>
