<svg width="462" height="175" viewBox="0 0 462 175" fill="none" xmlns="http://www.w3.org/2000/svg">
<g filter="url(#filter0_b_0_504)">
<path d="M462 13.1858H82.1599L61.9176 0H22.6238H-1.4619e-05L9.75012e-05 175H391.748L410.799 164.212H462V153.423V13.1858Z" fill="url(#paint0_linear_0_504)" fill-opacity="0.15"/>
<path d="M410.799 163.153H460.941V153.423V14.2447H82.1599C81.9547 14.2447 81.7539 14.185 81.582 14.073L61.6032 1.05881H22.6238H1.05878L1.0589 173.941H391.469L410.277 163.29C410.436 163.2 410.616 163.153 410.799 163.153Z" stroke="url(#paint1_linear_0_504)" stroke-width="2.11761" stroke-linecap="round" stroke-linejoin="round"/>
</g>
<mask id="mask0_0_504" style="mask-type:alpha" maskUnits="userSpaceOnUse" x="0" y="13" width="462" height="162">
<rect x="462" y="175" width="462" height="162" transform="rotate(-180 462 175)" fill="#C4C4C4"/>
</mask>
<g mask="url(#mask0_0_504)">
<g filter="url(#filter1_f_0_504)">
<ellipse rx="97.3697" ry="63.1756" transform="matrix(-1 0 0 1 311.211 6.36211)" fill="#F1A347"/>
</g>
<g filter="url(#filter2_f_0_504)">
<ellipse rx="113.263" ry="65.7181" transform="matrix(0.937748 -0.347315 -0.481957 -0.876195 241.885 14.0802)" fill="#FF72E0"/>
</g>
</g>
<path d="M440.958 17.9149L457.426 34.3822L457.426 17.9149L440.958 17.9149Z" fill="white"/>
<path d="M21.0415 170.467L4.57422 154L4.57422 170.467L21.0415 170.467Z" fill="white"/>
<path d="M32.0658 36.6563C34.4164 33.923 37.6691 32.5563 41.8238 32.5563C45.9784 32.5563 49.2174 33.923 51.5408 36.6563C53.8914 39.3897 55.0668 42.9703 55.0668 47.3983C55.0668 51.8537 53.8914 55.448 51.5408 58.1813C49.2174 60.9147 45.9784 62.2813 41.8238 62.2813C37.6691 62.2813 34.4164 60.9147 32.0658 58.1813C29.7151 55.448 28.5398 51.8537 28.5398 47.3983C28.5398 42.943 29.7151 39.3623 32.0658 36.6563ZM41.8238 37.1483C39.2544 37.1483 37.2728 38.064 35.8788 39.8953C34.4848 41.6993 33.7878 44.2003 33.7878 47.3983C33.7878 49.3937 34.0474 51.0883 34.5668 52.4823L46.7028 38.7473C45.3908 37.6813 43.7644 37.1483 41.8238 37.1483ZM41.8238 57.6893C44.3931 57.6893 46.3611 56.7873 47.7278 54.9833C49.1218 53.152 49.8188 50.6237 49.8188 47.3983C49.8188 45.4577 49.5728 43.7767 49.0808 42.3553L36.9038 56.0493C38.2158 57.1427 39.8558 57.6893 41.8238 57.6893ZM83.0775 51.7853V56.3773H79.6745V61.8713H74.4265V56.3773H59.2154V46.8243C62.6868 45.9223 65.4884 44.2823 67.6205 41.9043C69.7798 39.5263 71.0234 36.547 71.3514 32.9663H76.5995C76.2441 37.5037 74.7271 41.344 72.0485 44.4873C69.3971 47.6033 65.5841 49.8993 60.6094 51.3753V52.7693L64.0124 51.7853H74.4265V43.7493L79.6745 43.7493V51.7853H83.0775Z" fill="white"/>
<path opacity="0.95" d="M36.0856 95.2515H33.9276L37.7626 86.1515H39.4656L43.2876 95.2515H41.1426L40.5186 93.7175H36.7096L36.0856 95.2515ZM39.7646 91.8715L38.6206 89.0765L37.4766 91.8715H39.7646ZM47.6145 95.2515H45.9115L42.1415 86.1515H44.2995L46.7695 92.3005L46.8865 91.9755L49.2265 86.1515H51.3715L47.6145 95.2515ZM52.3737 95.2515H50.2157L54.0507 86.1515H55.7537L59.5757 95.2515H57.4307L56.8067 93.7175H52.9977L52.3737 95.2515ZM56.0527 91.8715L54.9087 89.0765L53.7647 91.8715H56.0527ZM61.6611 88.0495H58.8531V86.1515H66.5231V88.0495H63.7151V95.2515H61.6611V88.0495ZM67.9381 95.2515H65.7801L69.6151 86.1515H71.3181L75.1401 95.2515H72.9951L72.3711 93.7175H68.5621L67.9381 95.2515ZM71.6171 91.8715L70.4731 89.0765L69.3291 91.8715H71.6171ZM75.8473 86.1515L80.1113 86.1515C81.0387 86.1515 81.8187 86.4461 82.4513 87.0355C83.084 87.6161 83.4003 88.3398 83.4003 89.2065C83.4003 89.7785 83.253 90.3028 82.9583 90.7795C82.6637 91.2475 82.265 91.6115 81.7623 91.8715L83.7253 95.2515H81.4373L79.6823 92.2615H77.9143V95.2515H75.8473V86.1515ZM80.1113 88.0495L77.9143 88.0495V90.3635L80.1113 90.3635C80.4407 90.3635 80.7137 90.2551 80.9303 90.0385C81.147 89.8131 81.2553 89.5358 81.2553 89.2065C81.2553 88.8771 81.147 88.6041 80.9303 88.3875C80.7137 88.1621 80.4407 88.0495 80.1113 88.0495ZM92.3699 85.9825C93.3406 85.9825 94.2073 86.2208 94.9699 86.6975C95.7499 87.1741 96.3263 87.8068 96.6989 88.5955L94.6969 89.3365C94.4629 88.9118 94.1423 88.5781 93.7349 88.3355C93.3276 88.0841 92.8726 87.9585 92.3699 87.9585C91.6246 87.9585 91.0006 88.2228 90.4979 88.7515C89.9953 89.2628 89.7439 89.9128 89.7439 90.7015C89.7439 91.4815 89.9953 92.1358 90.4979 92.6645C91.0006 93.1845 91.6246 93.4445 92.3699 93.4445C92.8726 93.4445 93.3276 93.3231 93.7349 93.0805C94.1423 92.8291 94.4629 92.4911 94.6969 92.0665L96.6989 92.8075C96.3263 93.5961 95.7499 94.2331 94.9699 94.7185C94.2073 95.1865 93.3406 95.4205 92.3699 95.4205C91.0179 95.4205 89.8826 94.9698 88.9639 94.0685C88.0539 93.1758 87.5989 92.0535 87.5989 90.7015C87.5989 89.3495 88.0539 88.2271 88.9639 87.3345C89.8826 86.4331 91.0179 85.9825 92.3699 85.9825ZM98.7012 94.0685C97.7912 93.1758 97.3362 92.0535 97.3362 90.7015C97.3362 89.3495 97.7912 88.2271 98.7012 87.3345C99.6199 86.4331 100.755 85.9825 102.107 85.9825C103.459 85.9825 104.595 86.4331 105.513 87.3345C106.432 88.2271 106.891 89.3495 106.891 90.7015C106.891 92.0535 106.432 93.1758 105.513 94.0685C104.595 94.9698 103.459 95.4205 102.107 95.4205C100.755 95.4205 99.6199 94.9698 98.7012 94.0685ZM102.107 93.4445C102.853 93.4445 103.481 93.1845 103.992 92.6645C104.495 92.1358 104.746 91.4815 104.746 90.7015C104.746 89.9128 104.495 89.2628 103.992 88.7515C103.49 88.2228 102.861 87.9585 102.107 87.9585C101.362 87.9585 100.738 88.2228 100.235 88.7515C99.7326 89.2628 99.4812 89.9128 99.4812 90.7015C99.4812 91.4815 99.7326 92.1358 100.235 92.6645C100.738 93.1845 101.362 93.4445 102.107 93.4445ZM107.916 86.1515H109.983V93.3535H114.377V95.2515H107.916V86.1515ZM115.266 86.1515H117.333V93.3535H121.727V95.2515H115.266V86.1515ZM122.617 86.1515H129.416V88.0495H124.684V89.7135H128.662V91.6115H124.684V93.3535H129.481V95.2515H122.617V86.1515ZM134.772 85.9825C135.743 85.9825 136.61 86.2208 137.372 86.6975C138.152 87.1741 138.729 87.8068 139.101 88.5955L137.099 89.3365C136.865 88.9118 136.545 88.5781 136.137 88.3355C135.73 88.0841 135.275 87.9585 134.772 87.9585C134.027 87.9585 133.403 88.2228 132.9 88.7515C132.398 89.2628 132.146 89.9128 132.146 90.7015C132.146 91.4815 132.398 92.1358 132.9 92.6645C133.403 93.1845 134.027 93.4445 134.772 93.4445C135.275 93.4445 135.73 93.3231 136.137 93.0805C136.545 92.8291 136.865 92.4911 137.099 92.0665L139.101 92.8075C138.729 93.5961 138.152 94.2331 137.372 94.7185C136.61 95.1865 135.743 95.4205 134.772 95.4205C133.42 95.4205 132.285 94.9698 131.366 94.0685C130.456 93.1758 130.001 92.0535 130.001 90.7015C130.001 89.3495 130.456 88.2271 131.366 87.3345C132.285 86.4331 133.42 85.9825 134.772 85.9825ZM142.352 88.0495H139.544V86.1515H147.214V88.0495H144.406V95.2515H142.352V88.0495ZM150.163 95.2515H148.096V86.1515H150.163V95.2515ZM152.567 94.0685C151.657 93.1758 151.202 92.0535 151.202 90.7015C151.202 89.3495 151.657 88.2271 152.567 87.3345C153.486 86.4331 154.621 85.9825 155.973 85.9825C157.325 85.9825 158.461 86.4331 159.379 87.3345C160.298 88.2271 160.757 89.3495 160.757 90.7015C160.757 92.0535 160.298 93.1758 159.379 94.0685C158.461 94.9698 157.325 95.4205 155.973 95.4205C154.621 95.4205 153.486 94.9698 152.567 94.0685ZM155.973 93.4445C156.719 93.4445 157.347 93.1845 157.858 92.6645C158.361 92.1358 158.612 91.4815 158.612 90.7015C158.612 89.9128 158.361 89.2628 157.858 88.7515C157.356 88.2228 156.727 87.9585 155.973 87.9585C155.228 87.9585 154.604 88.2228 154.101 88.7515C153.599 89.2628 153.347 89.9128 153.347 90.7015C153.347 91.4815 153.599 92.1358 154.101 92.6645C154.604 93.1845 155.228 93.4445 155.973 93.4445ZM163.771 95.2515H161.782V86.1515H163.615L167.944 91.7285V86.1515H169.933V95.2515H168.1L163.771 89.7005V95.2515ZM178.082 95.2515H174.338V86.1515H178.082C179.425 86.1515 180.556 86.5891 181.475 87.4645C182.393 88.3311 182.853 89.4101 182.853 90.7015C182.853 91.9928 182.393 93.0718 181.475 93.9385C180.556 94.8138 179.425 95.2515 178.082 95.2515ZM178.082 88.0495H176.405V93.3535H178.082C178.818 93.3535 179.442 93.0978 179.954 92.5865C180.456 92.0838 180.708 91.4555 180.708 90.7015C180.708 89.9561 180.452 89.3278 179.941 88.8165C179.429 88.3051 178.81 88.0495 178.082 88.0495ZM183.897 86.1515H188.161C189.088 86.1515 189.868 86.4461 190.501 87.0355C191.134 87.6161 191.45 88.3398 191.45 89.2065C191.45 89.7785 191.303 90.3028 191.008 90.7795C190.713 91.2475 190.315 91.6115 189.812 91.8715L191.775 95.2515H189.487L187.732 92.2615H185.964V95.2515H183.897V86.1515ZM188.161 88.0495H185.964V90.3635H188.161C188.49 90.3635 188.763 90.2551 188.98 90.0385C189.197 89.8131 189.305 89.5358 189.305 89.2065C189.305 88.8771 189.197 88.6041 188.98 88.3875C188.763 88.1621 188.49 88.0495 188.161 88.0495ZM193.51 94.0685C192.6 93.1758 192.145 92.0535 192.145 90.7015C192.145 89.3495 192.6 88.2271 193.51 87.3345C194.428 86.4331 195.564 85.9825 196.916 85.9825C198.268 85.9825 199.403 86.4331 200.322 87.3345C201.24 88.2271 201.7 89.3495 201.7 90.7015C201.7 92.0535 201.24 93.1758 200.322 94.0685C199.403 94.9698 198.268 95.4205 196.916 95.4205C195.564 95.4205 194.428 94.9698 193.51 94.0685ZM196.916 93.4445C197.661 93.4445 198.289 93.1845 198.801 92.6645C199.303 92.1358 199.555 91.4815 199.555 90.7015C199.555 89.9128 199.303 89.2628 198.801 88.7515C198.298 88.2228 197.67 87.9585 196.916 87.9585C196.17 87.9585 195.546 88.2228 195.044 88.7515C194.541 89.2628 194.29 89.9128 194.29 90.7015C194.29 91.4815 194.541 92.1358 195.044 92.6645C195.546 93.1845 196.17 93.4445 196.916 93.4445ZM204.791 92.2615V95.2515H202.724V86.1515H206.858C207.786 86.1515 208.566 86.4461 209.198 87.0355C209.831 87.6161 210.147 88.3398 210.147 89.2065C210.147 90.0818 209.831 90.8098 209.198 91.3905C208.583 91.9711 207.803 92.2615 206.858 92.2615H204.791ZM206.858 88.0495H204.791V90.3635H206.858C207.188 90.3635 207.461 90.2551 207.677 90.0385C207.894 89.8131 208.002 89.5358 208.002 89.2065C208.002 88.8771 207.894 88.6041 207.677 88.3875C207.461 88.1621 207.188 88.0495 206.858 88.0495ZM34.5126 108.701C34.5126 107.367 34.9676 106.249 35.8776 105.347C36.7789 104.455 37.9143 104.008 39.2836 104.008C40.1849 104.008 40.9996 104.221 41.7276 104.645C42.4643 105.061 43.0406 105.638 43.4566 106.374L42.3126 106.803C42.0006 106.283 41.5759 105.876 41.0386 105.581C40.5099 105.287 39.9249 105.139 39.2836 105.139C38.2783 105.139 37.4333 105.482 36.7486 106.166C36.0639 106.842 35.7216 107.687 35.7216 108.701C35.7216 109.715 36.0509 110.565 36.7096 111.249C37.3683 111.925 38.1786 112.263 39.1406 112.263C39.9639 112.263 40.6963 112.008 41.3376 111.496C41.9789 110.976 42.3689 110.313 42.5076 109.507H38.8936L38.8936 108.415H43.8206C43.8379 108.623 43.8466 108.753 43.8466 108.805C43.8206 110.114 43.3613 111.206 42.4686 112.081C41.5673 112.957 40.4709 113.394 39.1796 113.394C37.8536 113.394 36.7443 112.948 35.8516 112.055C34.9589 111.163 34.5126 110.045 34.5126 108.701ZM52.015 110.248H46.204C46.282 110.855 46.5506 111.362 47.01 111.769C47.4606 112.168 48.0153 112.367 48.674 112.367C49.532 112.367 50.1993 112.042 50.676 111.392L51.742 111.73C51.43 112.25 51.001 112.658 50.455 112.952C49.9176 113.247 49.324 113.394 48.674 113.394C47.6513 113.394 46.7933 113.061 46.1 112.393C45.4153 111.717 45.073 110.877 45.073 109.871C45.073 108.866 45.4066 108.03 46.074 107.362C46.7413 106.686 47.569 106.348 48.557 106.348C49.5536 106.348 50.3813 106.686 51.04 107.362C51.7073 108.03 52.041 108.866 52.041 109.871C52.041 109.897 52.0323 110.023 52.015 110.248ZM46.217 109.364H50.91C50.806 108.784 50.533 108.303 50.091 107.921C49.6576 107.549 49.1376 107.362 48.531 107.362C47.9416 107.362 47.4346 107.549 47.01 107.921C46.5853 108.294 46.321 108.775 46.217 109.364ZM52.6559 107.453V106.491H53.7479V105.139H54.8399V106.491H56.7249V107.453H54.8399V111.132C54.8399 111.436 54.9309 111.691 55.1129 111.899C55.3036 112.099 55.5376 112.198 55.8149 112.198H56.7249V113.251H55.7369C55.1736 113.251 54.7013 113.061 54.3199 112.679C53.9386 112.298 53.7479 111.826 53.7479 111.262V107.453H52.6559ZM60.9333 107.453V106.491H62.0253V105.139H63.1173V106.491H65.0023V107.453H63.1173V111.132C63.1173 111.436 63.2083 111.691 63.3903 111.899C63.5809 112.099 63.8149 112.198 64.0923 112.198H65.0023V113.251H64.0143C63.4509 113.251 62.9786 113.061 62.5973 112.679C62.2159 112.298 62.0253 111.826 62.0253 111.262V107.453H60.9333ZM66.3712 113.251V103.501H67.4632V107.622C68.0006 106.773 68.8066 106.348 69.8812 106.348C70.6612 106.348 71.3156 106.604 71.8442 107.115C72.3642 107.618 72.6242 108.259 72.6242 109.039V113.251H71.5322V109.325C71.5322 108.779 71.3459 108.32 70.9732 107.947C70.6006 107.575 70.1369 107.388 69.5822 107.388C68.9842 107.388 68.4816 107.579 68.0742 107.96C67.6669 108.342 67.4632 108.805 67.4632 109.351V113.251H66.3712ZM81.0365 110.248H75.2255C75.3035 110.855 75.5721 111.362 76.0315 111.769C76.4821 112.168 77.0368 112.367 77.6955 112.367C78.5535 112.367 79.2208 112.042 79.6975 111.392L80.7635 111.73C80.4515 112.25 80.0225 112.658 79.4765 112.952C78.9391 113.247 78.3455 113.394 77.6955 113.394C76.6728 113.394 75.8148 113.061 75.1215 112.393C74.4368 111.717 74.0945 110.877 74.0945 109.871C74.0945 108.866 74.4281 108.03 75.0955 107.362C75.7628 106.686 76.5905 106.348 77.5785 106.348C78.5751 106.348 79.4028 106.686 80.0615 107.362C80.7288 108.03 81.0625 108.866 81.0625 109.871C81.0625 109.897 81.0538 110.023 81.0365 110.248ZM75.2385 109.364H79.9315C79.8275 108.784 79.5545 108.303 79.1125 107.921C78.6791 107.549 78.1591 107.362 77.5525 107.362C76.9631 107.362 76.4561 107.549 76.0315 107.921C75.6068 108.294 75.3425 108.775 75.2385 109.364ZM87.2846 109.767V113.251L86.1146 113.251V104.151L90.1056 104.151C90.9463 104.151 91.6483 104.42 92.2116 104.957C92.7749 105.495 93.0566 106.162 93.0566 106.959C93.0566 107.757 92.7749 108.424 92.2116 108.961C91.6483 109.499 90.9463 109.767 90.1056 109.767H87.2846ZM90.1056 105.243H87.2846V108.675H90.1056C90.5996 108.675 91.0113 108.511 91.3406 108.181C91.6699 107.852 91.8346 107.445 91.8346 106.959C91.8346 106.465 91.6699 106.058 91.3406 105.737C91.0113 105.408 90.5996 105.243 90.1056 105.243ZM94.6585 104.151H101.211V105.243H95.8285V108.051H100.548V109.143H95.8285V113.251H94.6585V104.151ZM103.865 109.767V113.251H102.695V104.151H106.686C107.526 104.151 108.228 104.42 108.792 104.957C109.355 105.495 109.637 106.162 109.637 106.959C109.637 107.757 109.355 108.424 108.792 108.961C108.228 109.499 107.526 109.767 106.686 109.767H103.865ZM106.686 105.243H103.865V108.675H106.686C107.18 108.675 107.591 108.511 107.921 108.181C108.25 107.852 108.415 107.445 108.415 106.959C108.415 106.465 108.25 106.058 107.921 105.737C107.591 105.408 107.18 105.243 106.686 105.243ZM117.692 106.348C118.706 106.348 119.529 106.717 120.162 107.453V106.491H121.254V113.251H120.162V112.289C119.529 113.026 118.706 113.394 117.692 113.394C116.747 113.394 115.954 113.061 115.313 112.393C114.68 111.726 114.364 110.885 114.364 109.871C114.364 108.857 114.68 108.021 115.313 107.362C115.946 106.686 116.739 106.348 117.692 106.348ZM117.809 107.44C117.159 107.44 116.609 107.674 116.158 108.142C115.716 108.602 115.495 109.178 115.495 109.871C115.495 110.565 115.716 111.145 116.158 111.613C116.617 112.073 117.168 112.302 117.809 112.302C118.468 112.302 119.018 112.073 119.46 111.613C119.911 111.154 120.136 110.573 120.136 109.871C120.136 109.169 119.911 108.593 119.46 108.142C119.018 107.674 118.468 107.44 117.809 107.44ZM125.265 113.251L122.353 106.491H123.484L125.759 111.847L128.047 106.491H129.178L126.266 113.251H125.265ZM133.015 106.348C134.029 106.348 134.853 106.717 135.485 107.453V106.491H136.577V113.251H135.485V112.289C134.853 113.026 134.029 113.394 133.015 113.394C132.071 113.394 131.278 113.061 130.636 112.393C130.004 111.726 129.687 110.885 129.687 109.871C129.687 108.857 130.004 108.021 130.636 107.362C131.269 106.686 132.062 106.348 133.015 106.348ZM133.132 107.44C132.482 107.44 131.932 107.674 131.481 108.142C131.039 108.602 130.818 109.178 130.818 109.871C130.818 110.565 131.039 111.145 131.481 111.613C131.941 112.073 132.491 112.302 133.132 112.302C133.791 112.302 134.341 112.073 134.783 111.613C135.234 111.154 135.459 110.573 135.459 109.871C135.459 109.169 135.234 108.593 134.783 108.142C134.341 107.674 133.791 107.44 133.132 107.44ZM137.689 107.453V106.491H138.781V105.139H139.873V106.491H141.758V107.453H139.873V111.132C139.873 111.436 139.964 111.691 140.146 111.899C140.337 112.099 140.571 112.198 140.848 112.198H141.758V113.251H140.77C140.207 113.251 139.734 113.061 139.353 112.679C138.972 112.298 138.781 111.826 138.781 111.262V107.453H137.689ZM146.053 106.348C147.067 106.348 147.891 106.717 148.523 107.453V106.491L149.615 106.491V113.251L148.523 113.251V112.289C147.891 113.026 147.067 113.394 146.053 113.394C145.109 113.394 144.316 113.061 143.674 112.393C143.042 111.726 142.725 110.885 142.725 109.871C142.725 108.857 143.042 108.021 143.674 107.362C144.307 106.686 145.1 106.348 146.053 106.348ZM146.17 107.44C145.52 107.44 144.97 107.674 144.519 108.142C144.077 108.602 143.856 109.178 143.856 109.871C143.856 110.565 144.077 111.145 144.519 111.613C144.979 112.073 145.529 112.302 146.17 112.302C146.829 112.302 147.379 112.073 147.821 111.613C148.272 111.154 148.497 110.573 148.497 109.871C148.497 109.169 148.272 108.593 147.821 108.142C147.379 107.674 146.829 107.44 146.17 107.44ZM152.547 109.429V113.251H151.455V106.491H152.547V107.635C153.059 106.777 153.86 106.348 154.952 106.348H155.134V107.557C154.996 107.505 154.835 107.479 154.653 107.479C154.055 107.479 153.557 107.666 153.158 108.038C152.751 108.42 152.547 108.883 152.547 109.429ZM160.741 107.96L159.714 108.142C159.645 107.882 159.48 107.679 159.22 107.531C158.969 107.384 158.648 107.31 158.258 107.31C157.886 107.31 157.574 107.393 157.322 107.557C157.08 107.722 156.958 107.934 156.958 108.194C156.958 108.558 157.197 108.823 157.673 108.987L159.324 109.572C160.356 109.954 160.871 110.569 160.871 111.418C160.871 112.034 160.637 112.519 160.169 112.874C159.701 113.221 159.09 113.394 158.336 113.394C157.617 113.394 157.023 113.238 156.555 112.926C156.096 112.606 155.819 112.172 155.723 111.626L156.75 111.444C156.82 111.739 156.997 111.977 157.283 112.159C157.578 112.341 157.938 112.432 158.362 112.432C158.778 112.432 159.125 112.341 159.402 112.159C159.688 111.977 159.831 111.743 159.831 111.457C159.831 111.05 159.532 110.742 158.934 110.534L157.322 109.975C156.378 109.655 155.905 109.087 155.905 108.272C155.905 107.666 156.126 107.193 156.568 106.855C157.019 106.517 157.608 106.348 158.336 106.348C158.986 106.348 159.524 106.496 159.948 106.79C160.382 107.076 160.646 107.466 160.741 107.96ZM167.462 114.044L167.865 113.056L165.174 106.491H166.305L168.424 111.743L170.608 106.491H171.739L168.411 114.408C168.16 115.024 167.835 115.47 167.436 115.747C167.046 116.033 166.548 116.176 165.941 116.176H165.629V115.123H165.941C166.652 115.123 167.159 114.764 167.462 114.044ZM173.256 112.393C172.588 111.709 172.255 110.868 172.255 109.871C172.255 108.866 172.588 108.03 173.256 107.362C173.932 106.686 174.772 106.348 175.778 106.348C176.783 106.348 177.624 106.686 178.3 107.362C178.976 108.03 179.314 108.866 179.314 109.871C179.314 110.877 178.976 111.717 178.3 112.393C177.615 113.061 176.774 113.394 175.778 113.394C174.781 113.394 173.94 113.061 173.256 112.393ZM175.778 112.302C176.462 112.302 177.034 112.073 177.494 111.613C177.953 111.137 178.183 110.556 178.183 109.871C178.183 109.178 177.953 108.602 177.494 108.142C177.034 107.674 176.462 107.44 175.778 107.44C175.093 107.44 174.525 107.674 174.075 108.142C173.615 108.602 173.386 109.178 173.386 109.871C173.386 110.556 173.615 111.137 174.075 111.613C174.534 112.073 175.102 112.302 175.778 112.302ZM180.781 110.703V106.491H181.873V110.417C181.873 110.955 182.055 111.414 182.419 111.795C182.791 112.168 183.255 112.354 183.81 112.354C184.399 112.354 184.893 112.168 185.292 111.795C185.699 111.414 185.903 110.946 185.903 110.391V106.491H186.995V113.251H185.903V112.133C185.4 112.974 184.603 113.394 183.511 113.394C182.731 113.394 182.076 113.139 181.548 112.627C181.036 112.116 180.781 111.475 180.781 110.703ZM194.919 113.251H193.97L191.669 106.491H192.774L194.425 111.561L196.076 106.491H197.038L198.689 111.574L200.353 106.491H201.458L199.144 113.251H198.195L196.557 108.311L194.919 113.251ZM203.646 113.251H202.554V106.491H203.646V113.251ZM202.554 105.386C202.415 105.239 202.346 105.057 202.346 104.84C202.346 104.624 202.415 104.446 202.554 104.307C202.701 104.16 202.883 104.086 203.1 104.086C203.317 104.086 203.499 104.16 203.646 104.307C203.793 104.446 203.867 104.624 203.867 104.84C203.867 105.057 203.793 105.239 203.646 105.386C203.499 105.525 203.317 105.594 203.1 105.594C202.883 105.594 202.701 105.525 202.554 105.386ZM206.578 113.251H205.486V103.501H206.578V113.251ZM209.511 113.251H208.419V103.501H209.511V113.251ZM214.893 110.703V106.491H215.985V110.417C215.985 110.955 216.167 111.414 216.531 111.795C216.904 112.168 217.367 112.354 217.922 112.354C218.511 112.354 219.005 112.168 219.404 111.795C219.811 111.414 220.015 110.946 220.015 110.391V106.491H221.107V113.251H220.015V112.133C219.512 112.974 218.715 113.394 217.623 113.394C216.843 113.394 216.189 113.139 215.66 112.627C215.149 112.116 214.893 111.475 214.893 110.703ZM227.544 107.96L226.517 108.142C226.448 107.882 226.283 107.679 226.023 107.531C225.772 107.384 225.451 107.31 225.061 107.31C224.689 107.31 224.377 107.393 224.125 107.557C223.883 107.722 223.761 107.934 223.761 108.194C223.761 108.558 224 108.823 224.476 108.987L226.127 109.572C227.159 109.954 227.674 110.569 227.674 111.418C227.674 112.034 227.44 112.519 226.972 112.874C226.504 113.221 225.893 113.394 225.139 113.394C224.42 113.394 223.826 113.238 223.358 112.926C222.899 112.606 222.622 112.172 222.526 111.626L223.553 111.444C223.623 111.739 223.8 111.977 224.086 112.159C224.381 112.341 224.741 112.432 225.165 112.432C225.581 112.432 225.928 112.341 226.205 112.159C226.491 111.977 226.634 111.743 226.634 111.457C226.634 111.05 226.335 110.742 225.737 110.534L224.125 109.975C223.181 109.655 222.708 109.087 222.708 108.272C222.708 107.666 222.929 107.193 223.371 106.855C223.822 106.517 224.411 106.348 225.139 106.348C225.789 106.348 226.327 106.496 226.751 106.79C227.185 107.076 227.449 107.466 227.544 107.96ZM235.742 110.248H229.931C230.009 110.855 230.277 111.362 230.737 111.769C231.187 112.168 231.742 112.367 232.401 112.367C233.259 112.367 233.926 112.042 234.403 111.392L235.469 111.73C235.157 112.25 234.728 112.658 234.182 112.952C233.644 113.247 233.051 113.394 232.401 113.394C231.378 113.394 230.52 113.061 229.827 112.393C229.142 111.717 228.8 110.877 228.8 109.871C228.8 108.866 229.133 108.03 229.801 107.362C230.468 106.686 231.296 106.348 232.284 106.348C233.28 106.348 234.108 106.686 234.767 107.362C235.434 108.03 235.768 108.866 235.768 109.871C235.768 109.897 235.759 110.023 235.742 110.248ZM229.944 109.364H234.637C234.533 108.784 234.26 108.303 233.818 107.921C233.384 107.549 232.864 107.362 232.258 107.362C231.668 107.362 231.161 107.549 230.737 107.921C230.312 108.294 230.048 108.775 229.944 109.364ZM242.25 105.62V106.491H244.057V107.453H242.25V113.251H241.158V107.453H240.027V106.491H241.158V105.49C241.158 104.927 241.348 104.455 241.73 104.073C242.111 103.692 242.583 103.501 243.147 103.501H244.044V104.554H243.225C242.947 104.554 242.713 104.658 242.523 104.866C242.341 105.066 242.25 105.317 242.25 105.62ZM245.632 112.393C244.964 111.709 244.631 110.868 244.631 109.871C244.631 108.866 244.964 108.03 245.632 107.362C246.308 106.686 247.148 106.348 248.154 106.348C249.159 106.348 250 106.686 250.676 107.362C251.352 108.03 251.69 108.866 251.69 109.871C251.69 110.877 251.352 111.717 250.676 112.393C249.991 113.061 249.15 113.394 248.154 113.394C247.157 113.394 246.316 113.061 245.632 112.393ZM248.154 112.302C248.838 112.302 249.41 112.073 249.87 111.613C250.329 111.137 250.559 110.556 250.559 109.871C250.559 109.178 250.329 108.602 249.87 108.142C249.41 107.674 248.838 107.44 248.154 107.44C247.469 107.44 246.901 107.674 246.451 108.142C245.991 108.602 245.762 109.178 245.762 109.871C245.762 110.556 245.991 111.137 246.451 111.613C246.91 112.073 247.478 112.302 248.154 112.302ZM254.275 109.429V113.251L253.183 113.251V106.491L254.275 106.491V107.635C254.786 106.777 255.588 106.348 256.68 106.348H256.862V107.557C256.723 107.505 256.563 107.479 256.381 107.479C255.783 107.479 255.284 107.666 254.886 108.038C254.478 108.42 254.275 108.883 254.275 109.429ZM262.717 113.251H261.625V106.491H262.717V113.251ZM261.625 105.386C261.486 105.239 261.417 105.057 261.417 104.84C261.417 104.624 261.486 104.446 261.625 104.307C261.772 104.16 261.954 104.086 262.171 104.086C262.388 104.086 262.57 104.16 262.717 104.307C262.864 104.446 262.938 104.624 262.938 104.84C262.938 105.057 262.864 105.239 262.717 105.386C262.57 105.525 262.388 105.594 262.171 105.594C261.954 105.594 261.772 105.525 261.625 105.386ZM264.558 113.251V106.491H265.65V107.622C266.187 106.773 266.989 106.348 268.055 106.348C268.835 106.348 269.48 106.604 269.992 107.115C270.512 107.618 270.772 108.259 270.772 109.039V113.251H269.68V109.325C269.68 108.779 269.493 108.32 269.121 107.947C268.757 107.575 268.302 107.388 267.756 107.388C267.166 107.388 266.668 107.579 266.261 107.96C265.853 108.342 265.65 108.805 265.65 109.351V113.251H264.558ZM272.542 110.378V109.364H276V110.378H272.542ZM277.773 110.703V106.491H278.865V110.417C278.865 110.955 279.047 111.414 279.411 111.795C279.784 112.168 280.247 112.354 280.802 112.354C281.391 112.354 281.885 112.168 282.284 111.795C282.691 111.414 282.895 110.946 282.895 110.391V106.491H283.987V113.251H282.895V112.133C282.392 112.974 281.595 113.394 280.503 113.394C279.723 113.394 279.069 113.139 278.54 112.627C278.029 112.116 277.773 111.475 277.773 110.703ZM285.835 113.251V106.491H286.927V107.622C287.464 106.773 288.266 106.348 289.332 106.348C290.112 106.348 290.758 106.604 291.269 107.115C291.789 107.618 292.049 108.259 292.049 109.039V113.251H290.957V109.325C290.957 108.779 290.771 108.32 290.398 107.947C290.034 107.575 289.579 107.388 289.033 107.388C288.444 107.388 287.945 107.579 287.538 107.96C287.131 108.342 286.927 108.805 286.927 109.351V113.251H285.835ZM294.963 113.251H293.871V106.491H294.963V113.251ZM293.871 105.386C293.733 105.239 293.663 105.057 293.663 104.84C293.663 104.624 293.733 104.446 293.871 104.307C294.019 104.16 294.201 104.086 294.417 104.086C294.634 104.086 294.816 104.16 294.963 104.307C295.111 104.446 295.184 104.624 295.184 104.84C295.184 105.057 295.111 105.239 294.963 105.386C294.816 105.525 294.634 105.594 294.417 105.594C294.201 105.594 294.019 105.525 293.871 105.386ZM298.975 113.251L296.063 106.491H297.194L299.469 111.847L301.757 106.491H302.888L299.976 113.251H298.975ZM310.339 110.248H304.528C304.606 110.855 304.875 111.362 305.334 111.769C305.785 112.168 306.34 112.367 306.998 112.367C307.856 112.367 308.524 112.042 309 111.392L310.066 111.73C309.754 112.25 309.325 112.658 308.779 112.952C308.242 113.247 307.648 113.394 306.998 113.394C305.976 113.394 305.118 113.061 304.424 112.393C303.74 111.717 303.397 110.877 303.397 109.871C303.397 108.866 303.731 108.03 304.398 107.362C305.066 106.686 305.893 106.348 306.881 106.348C307.878 106.348 308.706 106.686 309.364 107.362C310.032 108.03 310.365 108.866 310.365 109.871C310.365 109.897 310.357 110.023 310.339 110.248ZM304.541 109.364H309.234C309.13 108.784 308.857 108.303 308.415 107.921C307.982 107.549 307.462 107.362 306.855 107.362C306.266 107.362 305.759 107.549 305.334 107.921C304.91 108.294 304.645 108.775 304.541 109.364ZM312.851 109.429V113.251H311.759V106.491H312.851V107.635C313.362 106.777 314.164 106.348 315.256 106.348H315.438V107.557C315.299 107.505 315.139 107.479 314.957 107.479C314.359 107.479 313.861 107.666 313.462 108.038C313.055 108.42 312.851 108.883 312.851 109.429ZM321.045 107.96L320.018 108.142C319.949 107.882 319.784 107.679 319.524 107.531C319.273 107.384 318.952 107.31 318.562 107.31C318.19 107.31 317.878 107.393 317.626 107.557C317.384 107.722 317.262 107.934 317.262 108.194C317.262 108.558 317.501 108.823 317.977 108.987L319.628 109.572C320.66 109.954 321.175 110.569 321.175 111.418C321.175 112.034 320.941 112.519 320.473 112.874C320.005 113.221 319.394 113.394 318.64 113.394C317.921 113.394 317.327 113.238 316.859 112.926C316.4 112.606 316.123 112.172 316.027 111.626L317.054 111.444C317.124 111.739 317.301 111.977 317.587 112.159C317.882 112.341 318.242 112.432 318.666 112.432C319.082 112.432 319.429 112.341 319.706 112.159C319.992 111.977 320.135 111.743 320.135 111.457C320.135 111.05 319.836 110.742 319.238 110.534L317.626 109.975C316.682 109.655 316.209 109.087 316.209 108.272C316.209 107.666 316.43 107.193 316.872 106.855C317.323 106.517 317.912 106.348 318.64 106.348C319.29 106.348 319.828 106.496 320.252 106.79C320.686 107.076 320.95 107.466 321.045 107.96ZM329.243 110.248H323.432C323.51 110.855 323.778 111.362 324.238 111.769C324.688 112.168 325.243 112.367 325.902 112.367C326.76 112.367 327.427 112.042 327.904 111.392L328.97 111.73C328.658 112.25 328.229 112.658 327.683 112.952C327.145 113.247 326.552 113.394 325.902 113.394C324.879 113.394 324.021 113.061 323.328 112.393C322.643 111.717 322.301 110.877 322.301 109.871C322.301 108.866 322.634 108.03 323.302 107.362C323.969 106.686 324.797 106.348 325.785 106.348C326.781 106.348 327.609 106.686 328.268 107.362C328.935 108.03 329.269 108.866 329.269 109.871C329.269 109.897 329.26 110.023 329.243 110.248ZM323.445 109.364H328.138C328.034 108.784 327.761 108.303 327.319 107.921C326.885 107.549 326.365 107.362 325.759 107.362C325.169 107.362 324.662 107.549 324.238 107.921C323.813 108.294 323.549 108.775 323.445 109.364ZM35.8646 131.251H34.7726V124.491H35.8646V131.251ZM34.7726 123.386C34.6339 123.239 34.5646 123.057 34.5646 122.84C34.5646 122.624 34.6339 122.446 34.7726 122.307C34.9199 122.16 35.1019 122.086 35.3186 122.086C35.5353 122.086 35.7173 122.16 35.8646 122.307C36.0119 122.446 36.0856 122.624 36.0856 122.84C36.0856 123.057 36.0119 123.239 35.8646 123.386C35.7173 123.525 35.5353 123.594 35.3186 123.594C35.1019 123.594 34.9199 123.525 34.7726 123.386ZM37.7052 131.251V124.491H38.7972V125.622C39.3346 124.773 40.1362 124.348 41.2022 124.348C41.9822 124.348 42.6279 124.604 43.1392 125.115C43.6592 125.618 43.9192 126.259 43.9192 127.039V131.251H42.8272V127.325C42.8272 126.779 42.6409 126.32 42.2682 125.947C41.9042 125.575 41.4492 125.388 40.9032 125.388C40.3139 125.388 39.8156 125.579 39.4082 125.96C39.0009 126.342 38.7972 126.805 38.7972 127.351V131.251H37.7052ZM45.0134 125.453V124.491H46.1054V123.139H47.1974V124.491H49.0824V125.453H47.1974V129.132C47.1974 129.436 47.2884 129.691 47.4704 129.899C47.661 130.099 47.895 130.198 48.1724 130.198H49.0824V131.251H48.0944C47.531 131.251 47.0587 131.061 46.6774 130.679C46.296 130.298 46.1054 129.826 46.1054 129.262V125.453H45.0134ZM56.9915 128.248H51.1805C51.2585 128.855 51.5272 129.362 51.9865 129.769C52.4372 130.168 52.9919 130.367 53.6505 130.367C54.5085 130.367 55.1759 130.042 55.6525 129.392L56.7185 129.73C56.4065 130.25 55.9775 130.658 55.4315 130.952C54.8942 131.247 54.3005 131.394 53.6505 131.394C52.6279 131.394 51.7699 131.061 51.0765 130.393C50.3919 129.717 50.0495 128.877 50.0495 127.871C50.0495 126.866 50.3832 126.03 51.0505 125.362C51.7179 124.686 52.5455 124.348 53.5335 124.348C54.5302 124.348 55.3579 124.686 56.0165 125.362C56.6839 126.03 57.0175 126.866 57.0175 127.871C57.0175 127.897 57.0089 128.023 56.9915 128.248ZM51.1935 127.364H55.8865C55.7825 126.784 55.5095 126.303 55.0675 125.921C54.6342 125.549 54.1142 125.362 53.5075 125.362C52.9182 125.362 52.4112 125.549 51.9865 125.921C51.5619 126.294 51.2975 126.775 51.1935 127.364ZM59.5033 127.429V131.251H58.4113V124.491H59.5033V125.635C60.0146 124.777 60.8163 124.348 61.9083 124.348H62.0903V125.557C61.9516 125.505 61.7913 125.479 61.6093 125.479C61.0113 125.479 60.5129 125.666 60.1143 126.038C59.7069 126.42 59.5033 126.883 59.5033 127.429ZM65.9459 124.348C66.9599 124.348 67.7832 124.717 68.4159 125.453V124.491H69.5079V131.251H68.4159V130.289C67.7832 131.026 66.9599 131.394 65.9459 131.394C65.0012 131.394 64.2082 131.061 63.5669 130.393C62.9342 129.726 62.6179 128.885 62.6179 127.871C62.6179 126.857 62.9342 126.021 63.5669 125.362C64.1996 124.686 64.9926 124.348 65.9459 124.348ZM66.0629 125.44C65.4129 125.44 64.8626 125.674 64.4119 126.142C63.9699 126.602 63.7489 127.178 63.7489 127.871C63.7489 128.565 63.9699 129.145 64.4119 129.613C64.8712 130.073 65.4216 130.302 66.0629 130.302C66.7216 130.302 67.2719 130.073 67.7139 129.613C68.1646 129.154 68.3899 128.573 68.3899 127.871C68.3899 127.169 68.1646 126.593 67.7139 126.142C67.2719 125.674 66.7216 125.44 66.0629 125.44ZM77.7438 126.389L76.6518 126.714C76.4525 126.324 76.1621 126.017 75.7808 125.791C75.4081 125.557 74.9878 125.44 74.5198 125.44C73.8351 125.44 73.2675 125.674 72.8168 126.142C72.3575 126.602 72.1278 127.178 72.1278 127.871C72.1278 128.556 72.3575 129.137 72.8168 129.613C73.2761 130.073 73.8438 130.302 74.5198 130.302C74.9878 130.302 75.4081 130.19 75.7808 129.964C76.1621 129.73 76.4525 129.418 76.6518 129.028L77.7438 129.353C77.4665 129.986 77.0375 130.484 76.4568 130.848C75.8848 131.212 75.2391 131.394 74.5198 131.394C73.5231 131.394 72.6825 131.061 71.9978 130.393C71.3305 129.709 70.9968 128.868 70.9968 127.871C70.9968 126.866 71.3305 126.03 71.9978 125.362C72.6738 124.686 73.5145 124.348 74.5198 124.348C75.2391 124.348 75.8848 124.53 76.4568 124.894C77.0375 125.258 77.4665 125.757 77.7438 126.389ZM78.402 125.453V124.491H79.494V123.139H80.586V124.491H82.471V125.453H80.586V129.132C80.586 129.436 80.677 129.691 80.859 129.899C81.0497 130.099 81.2837 130.198 81.561 130.198H82.471V131.251H81.483C80.9197 131.251 80.4474 131.061 80.066 130.679C79.6847 130.298 79.494 129.826 79.494 129.262V125.453H78.402ZM84.932 131.251H83.84V124.491H84.932V131.251ZM83.84 123.386C83.7013 123.239 83.632 123.057 83.632 122.84C83.632 122.624 83.7013 122.446 83.84 122.307C83.9873 122.16 84.1693 122.086 84.386 122.086C84.6027 122.086 84.7847 122.16 84.932 122.307C85.0793 122.446 85.153 122.624 85.153 122.84C85.153 123.057 85.0793 123.239 84.932 123.386C84.7847 123.525 84.6027 123.594 84.386 123.594C84.1693 123.594 83.9873 123.525 83.84 123.386ZM87.4226 130.393C86.7553 129.709 86.4216 128.868 86.4216 127.871C86.4216 126.866 86.7553 126.03 87.4226 125.362C88.0986 124.686 88.9393 124.348 89.9446 124.348C90.9499 124.348 91.7906 124.686 92.4666 125.362C93.1426 126.03 93.4806 126.866 93.4806 127.871C93.4806 128.877 93.1426 129.717 92.4666 130.393C91.7819 131.061 90.9413 131.394 89.9446 131.394C88.9479 131.394 88.1073 131.061 87.4226 130.393ZM89.9446 130.302C90.6293 130.302 91.2013 130.073 91.6606 129.613C92.1199 129.137 92.3496 128.556 92.3496 127.871C92.3496 127.178 92.1199 126.602 91.6606 126.142C91.2013 125.674 90.6293 125.44 89.9446 125.44C89.2599 125.44 88.6923 125.674 88.2416 126.142C87.7823 126.602 87.5526 127.178 87.5526 127.871C87.5526 128.556 87.7823 129.137 88.2416 129.613C88.7009 130.073 89.2686 130.302 89.9446 130.302ZM94.9738 131.251V124.491H96.0658V125.622C96.6031 124.773 97.4048 124.348 98.4708 124.348C99.2508 124.348 99.8964 124.604 100.408 125.115C100.928 125.618 101.188 126.259 101.188 127.039L101.188 131.251H100.096L100.096 127.325C100.096 126.779 99.9094 126.32 99.5368 125.947C99.1728 125.575 98.7178 125.388 98.1718 125.388C97.5824 125.388 97.0841 125.579 96.6768 125.96C96.2694 126.342 96.0658 126.805 96.0658 127.351V131.251H94.9738ZM104.349 130.952C104.349 131.186 104.306 131.412 104.219 131.628C104.132 131.854 104.033 132.036 103.92 132.174C103.807 132.322 103.682 132.456 103.543 132.577C103.413 132.699 103.313 132.781 103.244 132.824C103.175 132.868 103.127 132.898 103.101 132.915L102.737 132.551C102.798 132.508 102.858 132.443 102.919 132.356C103.006 132.27 103.105 132.127 103.218 131.927C103.339 131.719 103.396 131.542 103.387 131.394C103.196 131.368 103.036 131.282 102.906 131.134C102.776 130.978 102.711 130.801 102.711 130.601C102.711 130.385 102.785 130.207 102.932 130.068C103.079 129.921 103.266 129.847 103.491 129.847C103.742 129.847 103.946 129.951 104.102 130.159C104.267 130.359 104.349 130.623 104.349 130.952ZM114.01 125.96L112.983 126.142C112.914 125.882 112.749 125.679 112.489 125.531C112.238 125.384 111.917 125.31 111.527 125.31C111.154 125.31 110.842 125.393 110.591 125.557C110.348 125.722 110.227 125.934 110.227 126.194C110.227 126.558 110.465 126.823 110.942 126.987L112.593 127.572C113.624 127.954 114.14 128.569 114.14 129.418C114.14 130.034 113.906 130.519 113.438 130.874C112.97 131.221 112.359 131.394 111.605 131.394C110.886 131.394 110.292 131.238 109.824 130.926C109.365 130.606 109.087 130.172 108.992 129.626L110.019 129.444C110.088 129.739 110.266 129.977 110.552 130.159C110.847 130.341 111.206 130.432 111.631 130.432C112.047 130.432 112.394 130.341 112.671 130.159C112.957 129.977 113.1 129.743 113.1 129.457C113.1 129.05 112.801 128.742 112.203 128.534L110.591 127.975C109.646 127.655 109.174 127.087 109.174 126.272C109.174 125.666 109.395 125.193 109.837 124.855C110.288 124.517 110.877 124.348 111.605 124.348C112.255 124.348 112.792 124.496 113.217 124.79C113.65 125.076 113.915 125.466 114.01 125.96ZM117.087 132.044L117.49 131.056L114.799 124.491H115.93L118.049 129.743L120.233 124.491H121.364L118.036 132.408C117.785 133.024 117.46 133.47 117.061 133.747C116.671 134.033 116.173 134.176 115.566 134.176H115.254V133.123H115.566C116.277 133.123 116.784 132.764 117.087 132.044ZM122.459 131.251L122.459 124.491H123.551V125.622C124.088 124.773 124.89 124.348 125.956 124.348C126.736 124.348 127.382 124.604 127.893 125.115C128.413 125.618 128.673 126.259 128.673 127.039V131.251H127.581L127.581 127.325C127.581 126.779 127.395 126.32 127.022 125.947C126.658 125.575 126.203 125.388 125.657 125.388C125.068 125.388 124.569 125.579 124.162 125.96C123.755 126.342 123.551 126.805 123.551 127.351L123.551 131.251H122.459ZM137.086 128.248H131.275C131.353 128.855 131.622 129.362 132.081 129.769C132.532 130.168 133.087 130.367 133.745 130.367C134.603 130.367 135.271 130.042 135.747 129.392L136.813 129.73C136.501 130.25 136.072 130.658 135.526 130.952C134.989 131.247 134.395 131.394 133.745 131.394C132.723 131.394 131.865 131.061 131.171 130.393C130.487 129.717 130.144 128.877 130.144 127.871C130.144 126.866 130.478 126.03 131.145 125.362C131.813 124.686 132.64 124.348 133.628 124.348C134.625 124.348 135.453 124.686 136.111 125.362C136.779 126.03 137.112 126.866 137.112 127.871C137.112 127.897 137.104 128.023 137.086 128.248ZM131.288 127.364H135.981C135.877 126.784 135.604 126.303 135.162 125.921C134.729 125.549 134.209 125.362 133.602 125.362C133.013 125.362 132.506 125.549 132.081 125.921C131.657 126.294 131.392 126.775 131.288 127.364ZM139.598 127.429V131.251H138.506V124.491H139.598V125.635C140.109 124.777 140.911 124.348 142.003 124.348H142.185V125.557C142.046 125.505 141.886 125.479 141.704 125.479C141.106 125.479 140.608 125.666 140.209 126.038C139.802 126.42 139.598 126.883 139.598 127.429ZM146.041 131.394C145.096 131.394 144.303 131.061 143.662 130.393C143.029 129.726 142.713 128.885 142.713 127.871C142.713 126.857 143.029 126.021 143.662 125.362C144.294 124.686 145.087 124.348 146.041 124.348C147.055 124.348 147.878 124.717 148.511 125.453V124.491H149.603V130.965C149.603 131.927 149.273 132.725 148.615 133.357C147.947 133.999 147.137 134.319 146.184 134.319C145.525 134.319 144.905 134.155 144.325 133.825C143.761 133.496 143.35 133.08 143.09 132.577L144.182 132.226C144.364 132.521 144.632 132.759 144.988 132.941C145.352 133.132 145.737 133.227 146.145 133.227C146.812 133.227 147.375 133.011 147.835 132.577C148.294 132.144 148.519 131.607 148.511 130.965V130.289C147.878 131.026 147.055 131.394 146.041 131.394ZM146.158 125.44C145.508 125.44 144.957 125.674 144.507 126.142C144.065 126.602 143.844 127.178 143.844 127.871C143.844 128.565 144.065 129.145 144.507 129.613C144.966 130.073 145.516 130.302 146.158 130.302C146.816 130.302 147.367 130.073 147.809 129.613C148.259 129.154 148.485 128.573 148.485 127.871C148.485 127.169 148.259 126.593 147.809 126.142C147.367 125.674 146.816 125.44 146.158 125.44ZM152.535 131.251H151.443V124.491H152.535V131.251ZM151.443 123.386C151.304 123.239 151.235 123.057 151.235 122.84C151.235 122.624 151.304 122.446 151.443 122.307C151.59 122.16 151.772 122.086 151.989 122.086C152.205 122.086 152.387 122.16 152.535 122.307C152.682 122.446 152.756 122.624 152.756 122.84C152.756 123.057 152.682 123.239 152.535 123.386C152.387 123.525 152.205 123.594 151.989 123.594C151.772 123.594 151.59 123.525 151.443 123.386ZM153.972 131.251V130.406L157.976 125.505H154.037V124.491H159.471V125.336L155.467 130.237H159.536V131.251H153.972ZM167.288 128.248H161.477C161.555 128.855 161.824 129.362 162.283 129.769C162.734 130.168 163.289 130.367 163.947 130.367C164.805 130.367 165.473 130.042 165.949 129.392L167.015 129.73C166.703 130.25 166.274 130.658 165.728 130.952C165.191 131.247 164.597 131.394 163.947 131.394C162.925 131.394 162.067 131.061 161.373 130.393C160.689 129.717 160.346 128.877 160.346 127.871C160.346 126.866 160.68 126.03 161.347 125.362C162.015 124.686 162.842 124.348 163.83 124.348C164.827 124.348 165.655 124.686 166.313 125.362C166.981 126.03 167.314 126.866 167.314 127.871C167.314 127.897 167.306 128.023 167.288 128.248ZM161.49 127.364H166.183C166.079 126.784 165.806 126.303 165.364 125.921C164.931 125.549 164.411 125.362 163.804 125.362C163.215 125.362 162.708 125.549 162.283 125.921C161.859 126.294 161.594 126.775 161.49 127.364ZM171.685 124.348C172.699 124.348 173.522 124.717 174.155 125.453V121.501H175.247V131.251H174.155V130.289C173.522 131.026 172.699 131.394 171.685 131.394C170.74 131.394 169.947 131.061 169.306 130.393C168.673 129.726 168.357 128.885 168.357 127.871C168.357 126.857 168.673 126.021 169.306 125.362C169.939 124.686 170.732 124.348 171.685 124.348ZM171.802 125.44C171.152 125.44 170.602 125.674 170.151 126.142C169.709 126.602 169.488 127.178 169.488 127.871C169.488 128.565 169.709 129.145 170.151 129.613C170.61 130.073 171.161 130.302 171.802 130.302C172.461 130.302 173.011 130.073 173.453 129.613C173.904 129.154 174.129 128.573 174.129 127.871C174.129 127.169 173.904 126.593 173.453 126.142C173.011 125.674 172.461 125.44 171.802 125.44ZM183.163 131.251H182.214L179.913 124.491H181.018L182.669 129.561L184.32 124.491H185.282L186.933 129.574L188.597 124.491H189.702L187.388 131.251H186.439L184.801 126.311L183.163 131.251ZM191.89 131.251H190.798V124.491H191.89V131.251ZM190.798 123.386C190.659 123.239 190.59 123.057 190.59 122.84C190.59 122.624 190.659 122.446 190.798 122.307C190.945 122.16 191.127 122.086 191.344 122.086C191.561 122.086 191.743 122.16 191.89 122.307C192.037 122.446 192.111 122.624 192.111 122.84C192.111 123.057 192.037 123.239 191.89 123.386C191.743 123.525 191.561 123.594 191.344 123.594C191.127 123.594 190.945 123.525 190.798 123.386ZM193.003 125.453V124.491H194.095V123.139H195.187V124.491H197.072V125.453H195.187V129.132C195.187 129.436 195.278 129.691 195.46 129.899C195.65 130.099 195.884 130.198 196.162 130.198H197.072V131.251H196.084C195.52 131.251 195.048 131.061 194.667 130.679C194.285 130.298 194.095 129.826 194.095 129.262V125.453H193.003ZM198.441 131.251V121.501H199.533V125.622C200.07 124.773 200.876 124.348 201.951 124.348C202.731 124.348 203.385 124.604 203.914 125.115C204.434 125.618 204.694 126.259 204.694 127.039V131.251H203.602V127.325C203.602 126.779 203.415 126.32 203.043 125.947C202.67 125.575 202.206 125.388 201.652 125.388C201.054 125.388 200.551 125.579 200.144 125.96C199.736 126.342 199.533 126.805 199.533 127.351V131.251H198.441ZM211.629 132.044L212.032 131.056L209.341 124.491H210.472L212.591 129.743L214.775 124.491H215.906L212.578 132.408C212.327 133.024 212.002 133.47 211.603 133.747C211.213 134.033 210.715 134.176 210.108 134.176H209.796V133.123H210.108C210.819 133.123 211.326 132.764 211.629 132.044ZM217.423 130.393C216.755 129.709 216.422 128.868 216.422 127.871C216.422 126.866 216.755 126.03 217.423 125.362C218.099 124.686 218.939 124.348 219.945 124.348C220.95 124.348 221.791 124.686 222.467 125.362C223.143 126.03 223.481 126.866 223.481 127.871C223.481 128.877 223.143 129.717 222.467 130.393C221.782 131.061 220.941 131.394 219.945 131.394C218.948 131.394 218.107 131.061 217.423 130.393ZM219.945 130.302C220.629 130.302 221.201 130.073 221.661 129.613C222.12 129.137 222.35 128.556 222.35 127.871C222.35 127.178 222.12 126.602 221.661 126.142C221.201 125.674 220.629 125.44 219.945 125.44C219.26 125.44 218.692 125.674 218.242 126.142C217.782 126.602 217.553 127.178 217.553 127.871C217.553 128.556 217.782 129.137 218.242 129.613C218.701 130.073 219.269 130.302 219.945 130.302ZM224.948 128.703V124.491H226.04V128.417C226.04 128.955 226.222 129.414 226.586 129.795C226.958 130.168 227.422 130.354 227.977 130.354C228.566 130.354 229.06 130.168 229.459 129.795C229.866 129.414 230.07 128.946 230.07 128.391V124.491H231.162V131.251H230.07V130.133C229.567 130.974 228.77 131.394 227.678 131.394C226.898 131.394 226.243 131.139 225.715 130.627C225.203 130.116 224.948 129.475 224.948 128.703ZM234.102 127.429V131.251H233.01V124.491H234.102V125.635C234.613 124.777 235.415 124.348 236.507 124.348H236.689V125.557C236.55 125.505 236.39 125.479 236.208 125.479C235.61 125.479 235.112 125.666 234.713 126.038C234.306 126.42 234.102 126.883 234.102 127.429ZM244.429 124.348C245.443 124.348 246.267 124.717 246.899 125.453V124.491H247.991V131.251H246.899V130.289C246.267 131.026 245.443 131.394 244.429 131.394C243.485 131.394 242.692 131.061 242.05 130.393C241.418 129.726 241.101 128.885 241.101 127.871C241.101 126.857 241.418 126.021 242.05 125.362C242.683 124.686 243.476 124.348 244.429 124.348ZM244.546 125.44C243.896 125.44 243.346 125.674 242.895 126.142C242.453 126.602 242.232 127.178 242.232 127.871C242.232 128.565 242.453 129.145 242.895 129.613C243.355 130.073 243.905 130.302 244.546 130.302C245.205 130.302 245.755 130.073 246.197 129.613C246.648 129.154 246.873 128.573 246.873 127.871C246.873 127.169 246.648 126.593 246.197 126.142C245.755 125.674 245.205 125.44 244.546 125.44ZM254.42 125.96L253.393 126.142C253.324 125.882 253.159 125.679 252.899 125.531C252.648 125.384 252.327 125.31 251.937 125.31C251.565 125.31 251.253 125.393 251.001 125.557C250.759 125.722 250.637 125.934 250.637 126.194C250.637 126.558 250.876 126.823 251.352 126.987L253.003 127.572C254.035 127.954 254.55 128.569 254.55 129.418C254.55 130.034 254.316 130.519 253.848 130.874C253.38 131.221 252.769 131.394 252.015 131.394C251.296 131.394 250.702 131.238 250.234 130.926C249.775 130.606 249.498 130.172 249.402 129.626L250.429 129.444C250.499 129.739 250.676 129.977 250.962 130.159C251.257 130.341 251.617 130.432 252.041 130.432C252.457 130.432 252.804 130.341 253.081 130.159C253.367 129.977 253.51 129.743 253.51 129.457C253.51 129.05 253.211 128.742 252.613 128.534L251.001 127.975C250.057 127.655 249.584 127.087 249.584 126.272C249.584 125.666 249.805 125.193 250.247 124.855C250.698 124.517 251.287 124.348 252.015 124.348C252.665 124.348 253.203 124.496 253.627 124.79C254.061 125.076 254.325 125.466 254.42 125.96ZM260.616 125.96L259.589 126.142C259.519 125.882 259.355 125.679 259.095 125.531C258.843 125.384 258.523 125.31 258.133 125.31C257.76 125.31 257.448 125.393 257.197 125.557C256.954 125.722 256.833 125.934 256.833 126.194C256.833 126.558 257.071 126.823 257.548 126.987L259.199 127.572C260.23 127.954 260.746 128.569 260.746 129.418C260.746 130.034 260.512 130.519 260.044 130.874C259.576 131.221 258.965 131.394 258.211 131.394C257.491 131.394 256.898 131.238 256.43 130.926C255.97 130.606 255.693 130.172 255.598 129.626L256.625 129.444C256.694 129.739 256.872 129.977 257.158 130.159C257.452 130.341 257.812 130.432 258.237 130.432C258.653 130.432 258.999 130.341 259.277 130.159C259.563 129.977 259.706 129.743 259.706 129.457C259.706 129.05 259.407 128.742 258.809 128.534L257.197 127.975C256.252 127.655 255.78 127.087 255.78 126.272C255.78 125.666 256.001 125.193 256.443 124.855C256.893 124.517 257.483 124.348 258.211 124.348C258.861 124.348 259.398 124.496 259.823 124.79C260.256 125.076 260.52 125.466 260.616 125.96ZM268.813 128.248L263.002 128.248C263.08 128.855 263.348 129.362 263.808 129.769C264.258 130.168 264.813 130.367 265.472 130.367C266.33 130.367 266.997 130.042 267.474 129.392L268.54 129.73C268.228 130.25 267.799 130.658 267.253 130.952C266.715 131.247 266.122 131.394 265.472 131.394C264.449 131.394 263.591 131.061 262.898 130.393C262.213 129.717 261.871 128.877 261.871 127.871C261.871 126.866 262.204 126.03 262.872 125.362C263.539 124.686 264.367 124.348 265.355 124.348C266.351 124.348 267.179 124.686 267.838 125.362C268.505 126.03 268.839 126.866 268.839 127.871C268.839 127.897 268.83 128.023 268.813 128.248ZM263.015 127.364L267.708 127.364C267.604 126.784 267.331 126.303 266.889 125.921C266.455 125.549 265.935 125.362 265.329 125.362C264.739 125.362 264.232 125.549 263.808 125.921C263.383 126.294 263.119 126.775 263.015 127.364ZM269.454 125.453V124.491H270.546V123.139H271.638V124.491H273.523V125.453H271.638V129.132C271.638 129.436 271.729 129.691 271.911 129.899C272.101 130.099 272.335 130.198 272.613 130.198H273.523V131.251H272.535C271.971 131.251 271.499 131.061 271.118 130.679C270.736 130.298 270.546 129.826 270.546 129.262V125.453H269.454ZM278.459 131.251V121.501H279.551V125.622C280.088 124.773 280.894 124.348 281.969 124.348C282.749 124.348 283.403 124.604 283.932 125.115C284.452 125.618 284.712 126.259 284.712 127.039V131.251H283.62V127.325C283.62 126.779 283.434 126.32 283.061 125.947C282.688 125.575 282.225 125.388 281.67 125.388C281.072 125.388 280.569 125.579 280.162 125.96C279.755 126.342 279.551 126.805 279.551 127.351V131.251H278.459ZM287.183 130.393C286.516 129.709 286.182 128.868 286.182 127.871C286.182 126.866 286.516 126.03 287.183 125.362C287.859 124.686 288.7 124.348 289.705 124.348C290.711 124.348 291.551 124.686 292.227 125.362C292.903 126.03 293.241 126.866 293.241 127.871C293.241 128.877 292.903 129.717 292.227 130.393C291.543 131.061 290.702 131.394 289.705 131.394C288.709 131.394 287.868 131.061 287.183 130.393ZM289.705 130.302C290.39 130.302 290.962 130.073 291.421 129.613C291.881 129.137 292.11 128.556 292.11 127.871C292.11 127.178 291.881 126.602 291.421 126.142C290.962 125.674 290.39 125.44 289.705 125.44C289.021 125.44 288.453 125.674 288.002 126.142C287.543 126.602 287.313 127.178 287.313 127.871C287.313 128.556 287.543 129.137 288.002 129.613C288.462 130.073 289.029 130.302 289.705 130.302ZM295.827 131.251H294.735V121.501H295.827V131.251ZM300.644 124.348C301.658 124.348 302.481 124.717 303.114 125.453V121.501H304.206V131.251H303.114V130.289C302.481 131.026 301.658 131.394 300.644 131.394C299.699 131.394 298.906 131.061 298.265 130.393C297.632 129.726 297.316 128.885 297.316 127.871C297.316 126.857 297.632 126.021 298.265 125.362C298.898 124.686 299.691 124.348 300.644 124.348ZM300.761 125.44C300.111 125.44 299.561 125.674 299.11 126.142C298.668 126.602 298.447 127.178 298.447 127.871C298.447 128.565 298.668 129.145 299.11 129.613C299.569 130.073 300.12 130.302 300.761 130.302C301.42 130.302 301.97 130.073 302.412 129.613C302.863 129.154 303.088 128.573 303.088 127.871C303.088 127.169 302.863 126.593 302.412 126.142C301.97 125.674 301.42 125.44 300.761 125.44ZM307.138 131.251H306.046V124.491H307.138V131.251ZM306.046 123.386C305.907 123.239 305.838 123.057 305.838 122.84C305.838 122.624 305.907 122.446 306.046 122.307C306.193 122.16 306.375 122.086 306.592 122.086C306.809 122.086 306.991 122.16 307.138 122.307C307.285 122.446 307.359 122.624 307.359 122.84C307.359 123.057 307.285 123.239 307.138 123.386C306.991 123.525 306.809 123.594 306.592 123.594C306.375 123.594 306.193 123.525 306.046 123.386ZM308.979 131.251V124.491H310.071V125.622C310.608 124.773 311.41 124.348 312.476 124.348C313.256 124.348 313.901 124.604 314.413 125.115C314.933 125.618 315.193 126.259 315.193 127.039V131.251H314.101V127.325C314.101 126.779 313.914 126.32 313.542 125.947C313.178 125.575 312.723 125.388 312.177 125.388C311.587 125.388 311.089 125.579 310.682 125.96C310.274 126.342 310.071 126.805 310.071 127.351V131.251H308.979ZM319.992 131.394C319.047 131.394 318.254 131.061 317.613 130.393C316.98 129.726 316.664 128.885 316.664 127.871C316.664 126.857 316.98 126.021 317.613 125.362C318.245 124.686 319.038 124.348 319.992 124.348C321.006 124.348 321.829 124.717 322.462 125.453V124.491H323.554V130.965C323.554 131.927 323.224 132.725 322.566 133.357C321.898 133.999 321.088 134.319 320.135 134.319C319.476 134.319 318.856 134.155 318.276 133.825C317.712 133.496 317.301 133.08 317.041 132.577L318.133 132.226C318.315 132.521 318.583 132.759 318.939 132.941C319.303 133.132 319.688 133.227 320.096 133.227C320.763 133.227 321.326 133.011 321.786 132.577C322.245 132.144 322.47 131.607 322.462 130.965V130.289C321.829 131.026 321.006 131.394 319.992 131.394ZM320.109 125.44C319.459 125.44 318.908 125.674 318.458 126.142C318.016 126.602 317.795 127.178 317.795 127.871C317.795 128.565 318.016 129.145 318.458 129.613C318.917 130.073 319.467 130.302 320.109 130.302C320.767 130.302 321.318 130.073 321.76 129.613C322.21 129.154 322.436 128.573 322.436 127.871C322.436 127.169 322.21 126.593 321.76 126.142C321.318 125.674 320.767 125.44 320.109 125.44ZM329.983 125.96L328.956 126.142C328.886 125.882 328.722 125.679 328.462 125.531C328.21 125.384 327.89 125.31 327.5 125.31C327.127 125.31 326.815 125.393 326.564 125.557C326.321 125.722 326.2 125.934 326.2 126.194C326.2 126.558 326.438 126.823 326.915 126.987L328.566 127.572C329.597 127.954 330.113 128.569 330.113 129.418C330.113 130.034 329.879 130.519 329.411 130.874C328.943 131.221 328.332 131.394 327.578 131.394C326.858 131.394 326.265 131.238 325.797 130.926C325.337 130.606 325.06 130.172 324.965 129.626L325.992 129.444C326.061 129.739 326.239 129.977 326.525 130.159C326.819 130.341 327.179 130.432 327.604 130.432C328.02 130.432 328.366 130.341 328.644 130.159C328.93 129.977 329.073 129.743 329.073 129.457C329.073 129.05 328.774 128.742 328.176 128.534L326.564 127.975C325.619 127.655 325.147 127.087 325.147 126.272C325.147 125.666 325.368 125.193 325.81 124.855C326.26 124.517 326.85 124.348 327.578 124.348C328.228 124.348 328.765 124.496 329.19 124.79C329.623 125.076 329.887 125.466 329.983 125.96ZM332.761 130.614C332.761 130.84 332.687 131.026 332.54 131.173C332.393 131.321 332.206 131.394 331.981 131.394C331.756 131.394 331.569 131.321 331.422 131.173C331.275 131.026 331.201 130.84 331.201 130.614C331.201 130.389 331.275 130.203 331.422 130.055C331.569 129.908 331.756 129.834 331.981 129.834C332.206 129.834 332.393 129.912 332.54 130.068C332.687 130.216 332.761 130.398 332.761 130.614Z" fill="white"/>
<defs>
<filter id="filter0_b_0_504" x="-33.8495" y="-33.8495" width="529.699" height="242.699" filterUnits="userSpaceOnUse" color-interpolation-filters="sRGB">
<feFlood flood-opacity="0" result="BackgroundImageFix"/>
<feGaussianBlur in="BackgroundImage" stdDeviation="16.9248"/>
<feComposite in2="SourceAlpha" operator="in" result="effect1_backgroundBlur_0_504"/>
<feBlend mode="normal" in="SourceGraphic" in2="effect1_backgroundBlur_0_504" result="shape"/>
</filter>
<filter id="filter1_f_0_504" x="83.1191" y="-187.536" width="456.184" height="387.796" filterUnits="userSpaceOnUse" color-interpolation-filters="sRGB">
<feFlood flood-opacity="0" result="BackgroundImageFix"/>
<feBlend mode="normal" in="SourceGraphic" in2="BackgroundImageFix" result="shape"/>
<feGaussianBlur stdDeviation="65.3611" result="effect1_foregroundBlur_0_504"/>
</filter>
<filter id="filter2_f_0_504" x="-3.6192" y="-190.304" width="491.009" height="408.768" filterUnits="userSpaceOnUse" color-interpolation-filters="sRGB">
<feFlood flood-opacity="0" result="BackgroundImageFix"/>
<feBlend mode="normal" in="SourceGraphic" in2="BackgroundImageFix" result="shape"/>
<feGaussianBlur stdDeviation="67.3206" result="effect1_foregroundBlur_0_504"/>
</filter>
<linearGradient id="paint0_linear_0_504" x1="36.7501" y1="-199.858" x2="463.579" y2="212.493" gradientUnits="userSpaceOnUse">
<stop stop-color="white" stop-opacity="0"/>
<stop offset="1" stop-color="white"/>
</linearGradient>
<linearGradient id="paint1_linear_0_504" x1="414.75" y1="-84.5169" x2="207.774" y2="106.556" gradientUnits="userSpaceOnUse">
<stop stop-color="white" stop-opacity="0.33"/>
<stop offset="1" stop-color="white" stop-opacity="0"/>
</linearGradient>
</defs>
</svg>
